<svg enable-background="new 0 0 1295.54 792" viewBox="0 0 1295.54 792" xmlns="http://www.w3.org/2000/svg"><g clip-rule="evenodd" fill-rule="evenodd"><path d="m839.47 223.41 12.64-26.35.87-.5-12.64 26.35z" fill="#016298"/><path d="m803.58 131.56 29.65 18.33.64 1.12-29.66-18.34z" fill="#016298"/><path d="m90.06 337.16 87.84-66.64.23 2.97-87.83 66.63z" fill="#016298"/><path d="m796.35 629.95 88.68 19.57-1.65.9-88.67-19.57z" fill="#016298"/><path d="m972.78 493.6-12.45 123.01-1.3-2.08 12.46-123z" fill="#808080"/><path d="m1113.34 577.34 34.18-92.59.75 1.77-34.17 92.6z" fill="#016298"/><path d="m1008.51 655.47 59.61-32.26-.74 1.69-59.62 32.26z" fill="#016298"/><path d="m753.22 280.83-136.31 108.63 3.71 4.44 136.31-108.63z" fill="#808080"/><path d="m314.82 282.3 160.86 27.67-1.68-2.27-160.86-27.67z" fill="#808080"/><path d="m619.73 432.66 144.24 175.39-.37-4.7-144.24-175.39z" fill="#808080"/><path d="m1196.28 225.26-189.54-33.86-.5 1.51 189.53 33.86z" fill="#808080"/><path d="m1221.68 178.32c-27.94 0-50.58 22.65-50.58 50.58 0 27.94 22.65 50.58 50.58 50.58 27.94 0 50.58-22.65 50.58-50.58 0-27.94-22.64-50.58-50.58-50.58zm0 4.32c-25.55 0-46.26 20.71-46.26 46.26s20.71 46.26 46.26 46.26 46.26-20.71 46.26-46.26-20.71-46.26-46.26-46.26z" fill="#808080"/><path d="m1221.68 185.46c-23.99 0-43.45 19.45-43.45 43.45 0 23.99 19.45 43.45 43.45 43.45 23.99 0 43.45-19.45 43.45-43.45s-19.46-43.45-43.45-43.45z" fill="#808080"/><path d="m994.14 185.89-125.79 55.9.31 1.09 125.79-55.89z" fill="#808080"/><path d="m1029.65 264.59-27.88-70.41-1.59-.01 27.88 70.41z" fill="#808080"/><path d="m1117.89 474.86-118.27-65.21-1.04 1.2 118.27 65.21z" fill="#808080"/><path d="m1142.44 450.95c-21.49 0-38.91 17.42-38.91 38.91s17.42 38.91 38.91 38.91 38.91-17.42 38.91-38.91-17.42-38.91-38.91-38.91zm0 3.32c-19.65 0-35.59 15.93-35.59 35.59 0 19.65 15.93 35.59 35.59 35.59 19.65 0 35.59-15.93 35.59-35.59 0-19.65-15.94-35.59-35.59-35.59z" fill="#951c1f"/><path d="m1142.44 456.44c-18.46 0-33.42 14.96-33.42 33.42s14.96 33.42 33.42 33.42 33.42-14.96 33.42-33.42-14.96-33.42-33.42-33.42z" fill="#951c1f"/><path d="m976.41 371.25c-15.17 0-27.47 12.3-27.47 27.47s12.3 27.46 27.47 27.46 27.47-12.3 27.47-27.46c0-15.17-12.3-27.47-27.47-27.47zm0 5.3c-12.24 0-22.17 9.93-22.17 22.17s9.93 22.17 22.17 22.17 22.17-9.93 22.17-22.17-9.92-22.17-22.17-22.17z" fill="#808080"/><path d="m975.94 384.61c-2.92 0-5.29 2.37-5.29 5.29s2.37 5.29 5.29 5.29 5.29-2.37 5.29-5.29-2.37-5.29-5.29-5.29z" fill="#808080"/><path d="m976.04 397.47c-5.98 0-10.92 5.3-11.72 12.18h23.43c-.79-6.88-5.73-12.18-11.71-12.18z" fill="#808080"/><path d="m998.2 169.64c-10.75 0-19.46 8.71-19.46 19.46s8.71 19.46 19.46 19.46 19.46-8.71 19.46-19.46-8.71-19.46-19.46-19.46zm0 1.67c-9.83 0-17.79 7.97-17.79 17.79 0 9.83 7.97 17.79 17.79 17.79 9.83 0 17.79-7.97 17.79-17.79.01-9.83-7.96-17.79-17.79-17.79z" fill="#951c1f"/><path d="m998.2 172.39c-9.23 0-16.71 7.48-16.71 16.71s7.48 16.71 16.71 16.71 16.71-7.48 16.71-16.71c.01-9.23-7.48-16.71-16.71-16.71z" fill="#951c1f"/><path d="m800.45 211.07-18.17-86.15h-1.04l18.17 86.15z" fill="#808080"/><path d="m781.24 99.69c-13.93 0-25.22 11.29-25.22 25.22s11.29 25.22 25.22 25.22 25.22-11.29 25.22-25.22c0-13.92-11.29-25.22-25.22-25.22zm0 2.16c-12.74 0-23.07 10.33-23.07 23.07s10.33 23.07 23.07 23.07 23.07-10.33 23.07-23.07c-.01-12.74-10.33-23.07-23.07-23.07z" fill="#808080"/><path d="m781.24 103.25c-11.97 0-21.66 9.7-21.66 21.66 0 11.97 9.7 21.66 21.66 21.66 11.97 0 21.66-9.7 21.66-21.66s-9.7-21.66-21.66-21.66z" fill="#808080"/><path d="m945.33 620.43c-35.04 0-63.44 28.4-63.44 63.44s28.4 63.44 63.44 63.44 63.44-28.4 63.44-63.44-28.4-63.44-63.44-63.44zm0 5.43c-32.04 0-58.01 25.97-58.01 58.01s25.97 58.01 58.01 58.01 58.01-25.97 58.01-58.01-25.97-58.01-58.01-58.01z" fill="#951c1f"/><path d="m945.08 651.59c-7.53 0-13.64 6.1-13.64 13.64 0 7.53 6.1 13.64 13.64 13.64 7.53 0 13.64-6.11 13.64-13.64 0-7.54-6.11-13.64-13.64-13.64z" fill="#951c1f"/><path d="m945.33 684.75c-15.42 0-28.16 13.66-30.21 31.4h60.42c-2.05-17.74-14.79-31.4-30.21-31.4z" fill="#951c1f"/><path d="m945.33 610.14c-40.72 0-73.73 33.01-73.73 73.73s33.01 73.73 73.73 73.73 73.73-33.01 73.73-73.73-33.01-73.73-73.73-73.73zm0 6.3c-37.24 0-67.42 30.19-67.42 67.42s30.19 67.42 67.42 67.42c37.24 0 67.42-30.19 67.42-67.42s-30.18-67.42-67.42-67.42z" fill="#951c1f"/><path d="m475.38 325.44-100.82 147.61 4.92 3.36 100.82-147.61z" fill="#808080"/><path d="m380.25 447.24c-11.51 0-20.85 9.33-20.85 20.85 0 11.51 9.33 20.85 20.85 20.85s20.85-9.33 20.85-20.85-9.34-20.85-20.85-20.85zm0 1.78c-10.53 0-19.06 8.53-19.06 19.06s8.53 19.06 19.06 19.06 19.06-8.54 19.06-19.06-8.53-19.06-19.06-19.06z" fill="#016298"/><path d="m380.25 450.18c-9.89 0-17.9 8.02-17.9 17.9 0 9.89 8.02 17.9 17.9 17.9 9.89 0 17.9-8.02 17.9-17.9.01-9.88-8.01-17.9-17.9-17.9z" fill="#016298"/><path d="m154.54 495.31 62.3-150.86-2.58 1.14-62.3 150.87z" fill="#808080"/><path d="m138.75 491.62c-26.89 0-48.69 21.8-48.69 48.69s21.8 48.69 48.69 48.69 48.69-21.8 48.69-48.69c0-26.9-21.8-48.69-48.69-48.69zm0 4.16c-24.59 0-44.52 19.93-44.52 44.52s19.93 44.52 44.52 44.52 44.52-19.93 44.52-44.52-19.93-44.52-44.52-44.52z" fill="#808080"/><path d="m138.54 507.01c-6.41 0-11.6 5.19-11.6 11.6s5.19 11.6 11.6 11.6 11.6-5.19 11.6-11.6-5.2-11.6-11.6-11.6z" fill="#808080"/><path d="m138.75 535.22c-13.11 0-23.95 11.62-25.7 26.71h51.39c-1.74-15.09-12.58-26.71-25.69-26.71z" fill="#808080"/><path d="m186.77 107.19 24.08 105.62 3.53-.8-24.09-105.63z" fill="#808080"/><path d="m184.6 57.42c-19.12 0-34.63 15.5-34.63 34.63 0 19.12 15.5 34.63 34.63 34.63 19.12 0 34.63-15.5 34.63-34.63s-15.51-34.63-34.63-34.63zm0 2.96c-17.49 0-31.67 14.18-31.67 31.67s14.18 31.67 31.67 31.67 31.67-14.18 31.67-31.67-14.18-31.67-31.67-31.67z" fill="#016298"/><path d="m184.6 62.3c-16.43 0-29.74 13.32-29.74 29.74 0 16.43 13.32 29.74 29.74 29.74 16.43 0 29.74-13.32 29.74-29.74s-13.31-29.74-29.74-29.74z" fill="#016298"/><path d="m244.86 196.46c-43.72 0-79.16 35.44-79.16 79.16s35.44 79.16 79.16 79.16 79.16-35.44 79.16-79.16-35.44-79.16-79.16-79.16zm0 15.26c-35.29 0-63.89 28.61-63.89 63.89 0 35.29 28.61 63.89 63.89 63.89 35.29 0 63.89-28.61 63.89-63.89s-28.6-63.89-63.89-63.89z" fill="#951c1f"/><path d="m243.5 234.96c-8.42 0-15.24 6.82-15.24 15.24s6.82 15.24 15.24 15.24 15.24-6.82 15.24-15.24-6.82-15.24-15.24-15.24z" fill="#951c1f"/><path d="m243.78 272.02c-17.23 0-31.48 15.27-33.77 35.09h67.53c-2.28-19.82-16.53-35.09-33.76-35.09z" fill="#951c1f"/><g fill="#808080"><path d="m453.76 143.2 54.45 120.99 3.05-2.4-54.45-121z"/><path d="m440.68 75.41c-19.65 0-35.59 15.93-35.59 35.59 0 19.65 15.93 35.59 35.59 35.59s35.59-15.93 35.59-35.59-15.93-35.59-35.59-35.59zm0 3.04c-17.97 0-32.54 14.57-32.54 32.54s14.57 32.54 32.54 32.54 32.54-14.57 32.54-32.54-14.57-32.54-32.54-32.54z"/><path d="m440.52 86.66c-4.68 0-8.48 3.8-8.48 8.48s3.8 8.48 8.48 8.48 8.48-3.8 8.48-8.48c0-4.69-3.79-8.48-8.48-8.48z"/><path d="m440.68 107.28c-9.59 0-17.51 8.49-18.78 19.52h37.57c-1.28-11.03-9.2-19.52-18.79-19.52z"/><path d="m810.23 201.97c-36.23 0-65.6 29.37-65.6 65.6s29.37 65.6 65.6 65.6 65.6-29.37 65.6-65.6-29.37-65.6-65.6-65.6zm0 12.65c-29.24 0-52.95 23.71-52.95 52.95s23.71 52.95 52.95 52.95 52.95-23.71 52.95-52.95c0-29.25-23.71-52.95-52.95-52.95z"/><path d="m809.11 233.87c-6.97 0-12.63 5.65-12.63 12.63 0 6.97 5.65 12.63 12.63 12.63 6.97 0 12.63-5.65 12.63-12.63 0-6.97-5.66-12.63-12.63-12.63z"/><path d="m809.34 264.59c-14.28 0-26.08 12.65-27.98 29.08h55.96c-1.9-16.43-13.7-29.08-27.98-29.08z"/><path d="m556.03 438.42-53.4 103.66 1.91-.66 53.39-103.66z"/><path d="m588.67 373.46c-23.21 0-42.02 18.82-42.02 42.02 0 23.21 18.81 42.02 42.02 42.02s42.02-18.81 42.02-42.02c.01-23.2-18.81-42.02-42.02-42.02zm0 8.1c-18.73 0-33.92 15.19-33.92 33.92s15.19 33.92 33.92 33.92 33.92-15.19 33.92-33.92-15.19-33.92-33.92-33.92z"/><path d="m587.95 393.9c-4.47 0-8.09 3.62-8.09 8.09s3.62 8.09 8.09 8.09 8.09-3.62 8.09-8.09-3.62-8.09-8.09-8.09z"/><path d="m588.1 413.58c-9.15 0-16.71 8.11-17.93 18.63h35.85c-1.21-10.53-8.77-18.63-17.92-18.63z"/></g><path d="m497.85 512.16c-20.11 0-36.41 16.3-36.41 36.41s16.3 36.41 36.41 36.41 36.41-16.3 36.41-36.41c.01-20.11-16.3-36.41-36.41-36.41zm0 3.11c-18.39 0-33.3 14.91-33.3 33.3s14.91 33.3 33.3 33.3 33.3-14.91 33.3-33.3-14.91-33.3-33.3-33.3z" fill="#951c1f"/><path d="m497.85 517.3c-17.27 0-31.28 14-31.28 31.28 0 17.27 14 31.28 31.28 31.28 17.27 0 31.28-14 31.28-31.28s-14-31.28-31.28-31.28z" fill="#951c1f"/><path d="m582.67 325.44 115.46 94.16-3.13 3.85-115.46-94.16z" fill="#016298"/><path d="m989.55 326.8-123.62 25.64 1.3-2.1 123.61-25.65z" fill="#016298"/><path d="m706.47 466.33-223.18 169.05.56-4.53 223.18-169.06z" fill="#016298"/><path d="m74.89 278.56c25.89 0 46.88 20.99 46.88 46.88s-20.99 46.88-46.88 46.88-46.88-20.99-46.88-46.88 20.99-46.88 46.88-46.88zm0 4.01c23.68 0 42.87 19.19 42.87 42.87s-19.19 42.87-42.87 42.87-42.87-19.19-42.87-42.87 19.2-42.87 42.87-42.87z" fill="#808080"/><path d="m74.89 285.17c22.24 0 40.27 18.03 40.27 40.27s-18.03 40.27-40.27 40.27-40.27-18.03-40.27-40.27c.01-22.24 18.03-40.27 40.27-40.27z" fill="#808080"/><path d="m359.69 237.44 116.58 51.81-.28 1.01-116.58-51.8z" fill="#016298"/><path d="m332.11 367.59 25.84-122.47h1.47l-25.84 122.47z" fill="#016298"/><path d="m280.22 528.06 35.35-120.06 1.47.11-35.35 120.07z" fill="#016298"/><path d="m270.14 504.24c19.92 0 36.07 16.15 36.07 36.07s-16.15 36.07-36.07 36.07-36.07-16.15-36.07-36.07c.01-19.93 16.15-36.07 36.07-36.07zm0 3.08c18.22 0 32.98 14.77 32.98 32.98s-14.77 32.98-32.98 32.98-32.98-14.77-32.98-32.98 14.77-32.98 32.98-32.98z" fill="#016298"/><path d="m270.14 509.33c17.11 0 30.98 13.87 30.98 30.98s-13.87 30.98-30.98 30.98-30.98-13.87-30.98-30.98 13.87-30.98 30.98-30.98z" fill="#016298"/><path d="m330.95 364.58c14.06 0 25.45 11.4 25.45 25.45 0 14.06-11.4 25.46-25.45 25.46-14.06 0-25.46-11.4-25.46-25.46.01-14.06 11.4-25.45 25.46-25.45zm0 4.9c11.35 0 20.55 9.2 20.55 20.55s-9.2 20.55-20.55 20.55-20.55-9.2-20.55-20.55c.01-11.35 9.21-20.55 20.55-20.55z" fill="#808080"/><path d="m331.39 376.96c2.71 0 4.9 2.19 4.9 4.9s-2.19 4.9-4.9 4.9-4.9-2.19-4.9-4.9 2.19-4.9 4.9-4.9z" fill="#808080"/><path d="m331.3 388.88c5.54 0 10.12 4.91 10.86 11.28h-21.72c.74-6.37 5.32-11.28 10.86-11.28z" fill="#808080"/><path d="m355.92 222.39c9.96 0 18.03 8.07 18.03 18.03s-8.07 18.03-18.03 18.03-18.03-8.07-18.03-18.03 8.07-18.03 18.03-18.03zm0 1.54c9.11 0 16.49 7.38 16.49 16.49s-7.38 16.49-16.49 16.49-16.49-7.38-16.49-16.49 7.38-16.49 16.49-16.49z" fill="#808080"/><path d="m355.92 224.93c8.55 0 15.49 6.93 15.49 15.49 0 8.55-6.93 15.49-15.49 15.49-8.55 0-15.49-6.93-15.49-15.49 0-8.55 6.94-15.49 15.49-15.49z" fill="#808080"/><path d="m539.2 260.78 16.85-79.84.96-.01-16.85 79.85z" fill="#016298"/><path d="m557.01 157.56c12.91 0 23.38 10.47 23.38 23.38s-10.47 23.38-23.38 23.38-23.38-10.47-23.38-23.38c0-12.92 10.47-23.38 23.38-23.38zm0 2c11.81 0 21.38 9.57 21.38 21.38s-9.57 21.38-21.38 21.38-21.38-9.57-21.38-21.38 9.57-21.38 21.38-21.38z" fill="#808080"/><path d="m557.01 160.86c11.09 0 20.08 8.99 20.08 20.08s-8.99 20.08-20.08 20.08-20.08-8.99-20.08-20.08 8.99-20.08 20.08-20.08z" fill="#808080"/><path d="m429.52 613.5c32.47 0 58.79 26.32 58.79 58.79s-26.32 58.79-58.79 58.79-58.79-26.32-58.79-58.79 26.32-58.79 58.79-58.79zm0 5.03c29.69 0 53.77 24.07 53.77 53.77 0 29.69-24.07 53.77-53.77 53.77-29.69 0-53.76-24.07-53.76-53.77s24.07-53.77 53.76-53.77z" fill="#808080"/><path d="m429.75 642.37c6.98 0 12.64 5.66 12.64 12.64s-5.66 12.64-12.64 12.64-12.64-5.66-12.64-12.64 5.66-12.64 12.64-12.64z" fill="#808080"/><path d="m429.52 673.11c14.29 0 26.1 12.66 28 29.1h-56c1.9-16.44 13.71-29.1 28-29.1z" fill="#808080"/><path d="m429.52 603.96c37.74 0 68.33 30.59 68.33 68.33s-30.59 68.33-68.33 68.33-68.33-30.59-68.33-68.33 30.59-68.33 68.33-68.33zm0 5.84c34.51 0 62.49 27.98 62.49 62.49s-27.98 62.49-62.49 62.49-62.49-27.98-62.49-62.49 27.98-62.49 62.49-62.49z" fill="#808080"/><path d="m870.93 393.97 94.98 78.73-2.59 3.22-94.97-78.74z" fill="#808080"/><path d="m972.26 460.35c10.67 0 19.32 8.65 19.32 19.32s-8.65 19.32-19.32 19.32-19.32-8.65-19.32-19.32 8.65-19.32 19.32-19.32zm0 1.65c9.76 0 17.67 7.91 17.67 17.67s-7.91 17.67-17.67 17.67-17.67-7.91-17.67-17.67 7.91-17.67 17.67-17.67z" fill="#016298"/><path d="m972.26 463.07c9.16 0 16.59 7.43 16.59 16.59s-7.43 16.59-16.59 16.59-16.59-7.43-16.59-16.59c-.01-9.16 7.42-16.59 16.59-16.59z" fill="#016298"/><path d="m1109.02 574.37c24.92 0 45.12 20.2 45.12 45.12s-20.2 45.12-45.12 45.12-45.12-20.2-45.12-45.12c-.01-24.91 20.2-45.12 45.12-45.12zm0 3.86c22.79 0 41.26 18.47 41.26 41.26s-18.47 41.26-41.26 41.26-41.26-18.47-41.26-41.26c-.01-22.78 18.47-41.26 41.26-41.26z" fill="#016298"/><path d="m1109.21 588.64c5.94 0 10.75 4.81 10.75 10.75s-4.81 10.75-10.75 10.75-10.75-4.81-10.75-10.75 4.82-10.75 10.75-10.75z" fill="#016298"/><path d="m1109.02 614.78c12.15 0 22.2 10.77 23.82 24.75h-47.63c1.61-13.98 11.65-24.75 23.81-24.75z" fill="#016298"/><path d="m1107.96 164.5-22.32 97.9-3.26-.75 22.32-97.89z" fill="#808080"/><path d="m1109.97 118.38c17.72 0 32.09 14.37 32.09 32.09 0 17.73-14.37 32.09-32.09 32.09s-32.09-14.37-32.09-32.09 14.37-32.09 32.09-32.09zm0 2.74c16.21 0 29.35 13.14 29.35 29.35s-13.14 29.35-29.35 29.35-29.35-13.14-29.35-29.35 13.14-29.35 29.35-29.35z" fill="#808080"/><path d="m1109.97 122.9c15.22 0 27.57 12.34 27.57 27.57 0 15.22-12.34 27.57-27.57 27.57-15.22 0-27.57-12.34-27.57-27.57.01-15.22 12.35-27.57 27.57-27.57z" fill="#808080"/><path d="m1055.38 282.92c7.8 0 14.12 6.32 14.12 14.12s-6.32 14.12-14.12 14.12-14.12-6.32-14.12-14.12 6.32-14.12 14.12-14.12z" fill="#951c1f"/><path d="m1055.12 317.27c15.97 0 29.17 14.15 31.29 32.52h-62.59c2.13-18.37 15.33-32.52 31.3-32.52z" fill="#951c1f"/><path d="m814.64 383.91-46.02 12.85-.96-1.58 46.02-12.85z" fill="#016298"/><path d="m845.23 341.78c18.22 0 32.98 14.77 32.98 32.98 0 18.22-14.77 32.98-32.98 32.98-18.22 0-32.98-14.77-32.98-32.98-.01-18.22 14.76-32.98 32.98-32.98zm0 2.82c16.66 0 30.16 13.5 30.16 30.16s-13.5 30.16-30.16 30.16-30.16-13.5-30.16-30.16c-.01-16.66 13.5-30.16 30.16-30.16z" fill="#016298"/><path d="m845.37 352.21c4.34 0 7.86 3.52 7.86 7.86s-3.52 7.86-7.86 7.86-7.86-3.52-7.86-7.86c0-4.35 3.52-7.86 7.86-7.86z" fill="#016298"/><path d="m845.23 371.32c8.88 0 16.23 7.87 17.41 18.09h-34.82c1.18-10.22 8.52-18.09 17.41-18.09z" fill="#016298"/><path d="m530.13 252.34c33.58 0 60.79 27.22 60.79 60.79 0 33.58-27.22 60.79-60.79 60.79s-60.79-27.22-60.79-60.79 27.22-60.79 60.79-60.79zm0 11.73c27.1 0 49.07 21.97 49.07 49.07s-21.97 49.07-49.07 49.07-49.07-21.97-49.07-49.07 21.97-49.07 49.07-49.07z" fill="#016298"/><path d="m531.18 281.91c6.46 0 11.71 5.24 11.71 11.7s-5.24 11.7-11.71 11.7c-6.46 0-11.7-5.24-11.7-11.7-.01-6.46 5.23-11.7 11.7-11.7z" fill="#016298"/><path d="m530.96 310.38c13.23 0 24.17 11.73 25.93 26.95h-51.87c1.77-15.22 12.71-26.95 25.94-26.95z" fill="#016298"/><path d="m759.74 475.34 16.37 169.53-2.81-3.13-16.37-169.53z" fill="#016298"/><path d="m740.26 380.96c28.66 0 51.89 23.23 51.89 51.89s-23.23 51.89-51.89 51.89-51.89-23.23-51.89-51.89c-.01-28.65 23.23-51.89 51.89-51.89zm0 10.01c23.13 0 41.89 18.75 41.89 41.88s-18.75 41.89-41.89 41.89c-23.13 0-41.89-18.75-41.89-41.89 0-23.13 18.75-41.88 41.89-41.88z" fill="#808080"/><path d="m741.15 406.2c5.52 0 9.99 4.47 9.99 9.99s-4.47 9.99-9.99 9.99-9.99-4.47-9.99-9.99c-.01-5.51 4.47-9.99 9.99-9.99z" fill="#808080"/><path d="m740.96 430.5c11.3 0 20.63 10.01 22.14 23.01h-44.27c1.5-13 10.83-23.01 22.13-23.01z" fill="#808080"/><path d="m781.24 592.11c18.64 0 33.75 15.11 33.75 33.75s-15.11 33.75-33.75 33.75-33.75-15.11-33.75-33.75 15.11-33.75 33.75-33.75zm0 2.88c17.04 0 30.86 13.82 30.86 30.86s-13.82 30.86-30.86 30.86-30.86-13.82-30.86-30.86 13.81-30.86 30.86-30.86z" fill="#808080"/><path d="m781.24 596.87c16.01 0 28.99 12.98 28.99 28.99s-12.98 28.99-28.99 28.99-28.99-12.98-28.99-28.99 12.98-28.99 28.99-28.99z" fill="#808080"/><path d="m909.78 237.83 80.35 60.21-2.01 2.67-80.35-60.2z" fill="#808080"/><path d="m993.69 381.44 15.03-12.79-.37-.57-15.04 12.79z" fill="#808080"/><path d="m687.97 91.32 77.9 135.62-2.19 1.9-80.27-139.74z" fill="#808080"/><path d="m677.08 59.64c12.91 0 23.38 10.47 23.38 23.38s-10.47 23.38-23.38 23.38-23.38-10.47-23.38-23.38 10.47-23.38 23.38-23.38zm0 2c11.81 0 21.38 9.57 21.38 21.38s-9.57 21.38-21.38 21.38-21.38-9.57-21.38-21.38 9.57-21.38 21.38-21.38z" fill="#016298"/><path d="m677.08 62.94c11.09 0 20.08 8.99 20.08 20.08s-8.99 20.08-20.08 20.08-20.08-8.99-20.08-20.08 8.99-20.08 20.08-20.08z" fill="#016298"/><path d="m906.37 218.18c10.54 0 19.08 8.54 19.08 19.08s-8.54 19.08-19.08 19.08-19.08-8.54-19.08-19.08 8.55-19.08 19.08-19.08zm0 1.63c9.64 0 17.45 7.81 17.45 17.45s-7.81 17.45-17.45 17.45-17.45-7.81-17.45-17.45c.01-9.64 7.82-17.45 17.45-17.45z" fill="#808080"/><path d="m906.37 220.87c9.05 0 16.39 7.34 16.39 16.39s-7.34 16.39-16.39 16.39-16.39-7.34-16.39-16.39c.01-9.06 7.34-16.39 16.39-16.39z" fill="#808080"/><path d="m859.19 136.41c18.35 0 33.23 14.88 33.23 33.23s-14.88 33.23-33.23 33.23-33.23-14.88-33.23-33.23 14.88-33.23 33.23-33.23zm0 6.41c14.81 0 26.82 12.01 26.82 26.82s-12.01 26.82-26.82 26.82-26.82-12.01-26.82-26.82 12.01-26.82 26.82-26.82z" fill="#808080"/><path d="m859.76 152.58c3.53 0 6.4 2.86 6.4 6.4s-2.86 6.4-6.4 6.4-6.4-2.86-6.4-6.4 2.87-6.4 6.4-6.4z" fill="#808080"/><path d="m859.65 168.14c7.23 0 13.21 6.41 14.17 14.73h-28.35c.96-8.32 6.94-14.73 14.18-14.73z" fill="#808080"/><path d="m1054.13 247.24c40.52 0 73.36 32.85 73.36 73.36 0 40.52-32.85 73.36-73.36 73.36-40.52 0-73.36-32.85-73.36-73.36-.01-40.52 32.84-73.36 73.36-73.36zm0 14.14c32.7 0 59.22 26.51 59.22 59.22s-26.51 59.22-59.22 59.22-59.22-26.51-59.22-59.22c0-32.7 26.51-59.22 59.22-59.22z" fill="#951c1f"/></g></svg>